<?xml version="1.0" encoding="UTF-8" standalone="no"?>
<!-- Created with Inkscape (http://www.inkscape.org/) -->

<svg
   version="1.1"
   id="svg2"
   width="2048"
   height="2048"
   viewBox="0 0 2048.0001 2048.0001"
   sodipodi:docname="splash.svg"
   inkscape:version="1.1.1 (3bf5ae0d25, 2021-09-20)"
   inkscape:export-filename="/home/reglnx/Documents/Programming Work/707-300/splash.png"
   inkscape:export-xdpi="48"
   inkscape:export-ydpi="48"
   xmlns:inkscape="http://www.inkscape.org/namespaces/inkscape"
   xmlns:sodipodi="http://sodipodi.sourceforge.net/DTD/sodipodi-0.dtd"
   xmlns="http://www.w3.org/2000/svg"
   xmlns:svg="http://www.w3.org/2000/svg">
  <defs
     id="defs6" />
  <sodipodi:namedview
     id="namedview4"
     pagecolor="#505050"
     bordercolor="#eeeeee"
     borderopacity="1"
     inkscape:pageshadow="0"
     inkscape:pageopacity="0"
     inkscape:pagecheckerboard="0"
     showgrid="false"
     inkscape:snap-page="true"
     inkscape:snap-object-midpoints="true"
     inkscape:snap-center="true"
     inkscape:snap-bbox="true"
     inkscape:bbox-paths="true"
     inkscape:bbox-nodes="true"
     inkscape:snap-bbox-edge-midpoints="true"
     inkscape:snap-bbox-midpoints="true"
     inkscape:snap-global="true"
     inkscape:zoom="0.24316408"
     inkscape:cx="1085.6867"
     inkscape:cy="1155.5983"
     inkscape:window-width="1600"
     inkscape:window-height="831"
     inkscape:window-x="0"
     inkscape:window-y="32"
     inkscape:window-maximized="1"
     inkscape:current-layer="g8" />
  <g
     inkscape:groupmode="layer"
     inkscape:label="Image"
     id="g8">
    <rect
       style="opacity:0.9965;fill:#000000;stroke-width:10;stroke-linecap:square"
       id="rect15664"
       width="2048"
       height="2048"
       x="0"
       y="0"
       inkscape:export-filename="/home/reglnx/Documents/Programming Work/707-300/splash.png"
       inkscape:export-xdpi="15.798033"
       inkscape:export-ydpi="15.798033" />
    <g
       id="g7336"
       transform="matrix(0.74964497,0,0,0.74964332,6071.3361,4693.3344)"
       inkscape:export-xdpi="17.988213"
       inkscape:export-ydpi="17.988213"
       inkscape:export-filename="/home/reglnx/FGR.png"
       style="stroke:none">
      <title
         id="title7371">FlightGear Republic Icon</title>
      <path
         inkscape:export-ydpi="15.798033"
         inkscape:export-xdpi="15.798033"
         inkscape:export-filename="/home/reglnx/Pictures/emojis/fgr.png"
         id="path8601"
         d="m -5624.2706,-3535.5995 v -301.8168 h -126.5674 a 205.79761,205.79761 0 0 0 -27.7455,102.8279 205.79761,205.79761 0 0 0 154.3129,198.9889 z"
         style="opacity:0.997;fill:#ffd700;fill-opacity:1;stroke:none;stroke-width:0.175147;stroke-opacity:1"
         inkscape:connector-curvature="0" />
      <path
         inkscape:export-ydpi="15.798033"
         inkscape:export-xdpi="15.798033"
         inkscape:export-filename="/home/reglnx/Pictures/emojis/fgr.png"
         id="path8526"
         d="m -5572.7858,-3940.3864 a 205.79761,205.79761 0 0 0 -178.0522,102.9701 h 126.5674 v 301.8168 a 205.79761,205.79761 0 0 0 51.4848,6.8088 205.79761,205.79761 0 0 0 205.7971,-205.7977 205.79761,205.79761 0 0 0 -205.7971,-205.798 z"
         style="opacity:0.997;fill:#f8f8ff;fill-opacity:1;stroke:none;stroke-width:0.175147;stroke-opacity:1"
         inkscape:connector-curvature="0" />
      <path
         inkscape:export-ydpi="15.798033"
         inkscape:export-xdpi="15.798033"
         inkscape:export-filename="/home/reglnx/Pictures/emojis/fgr.png"
         id="circle8570"
         d="m -5750.838,-3837.4163 h 356.3188 c -36.683,-63.6568 -104.7592,-103.0103 -178.2666,-102.9701 -73.477,0.077 -141.3392,39.3224 -178.0522,102.9701 z"
         style="opacity:0.997;fill:#4169e1;fill-opacity:1;stroke:none;stroke-width:0.175147;stroke-opacity:1"
         inkscape:connector-curvature="0"
         sodipodi:nodetypes="cccc" />
      <path
         inkscape:export-filename="/home/reglnx/Pictures/emojis/fgr.png"
         inkscape:export-ydpi="15.798033"
         inkscape:export-xdpi="15.798033"
         inkscape:connector-curvature="0"
         id="path6823-1"
         d="m -5528.2904,-3856.9441 c -0.3695,-0.4453 -0.6719,-1.7396 -0.6719,-2.8758 0,-2.4521 0.8734,-3.6857 2.6087,-3.6857 2.0283,0 2.5468,-2.1687 1.1714,-4.8971 -0.6134,-1.2159 -1.1653,-2.2707 -1.2271,-2.3438 -0.061,-0.073 -1.4912,0.3413 -3.1767,0.9213 -1.6856,0.5799 -3.8094,1.0545 -4.7199,1.0545 -0.9102,0 -1.9208,0.2656 -2.2458,0.5907 -0.8818,0.8819 -0.2028,2.0419 1.1952,2.0419 1.6515,0 1.8535,0.4907 1.019,2.4754 -0.7017,1.6693 -0.8501,1.7434 -6.1777,3.0841 -0.507,0.1275 -1.4013,0.3685 -1.988,0.5352 -0.8327,0.2364 -1.1841,-0.034 -1.602,-1.2332 l -0.5355,-1.5359 -3.9896,1.2937 c -4.2942,1.3926 -4.8907,1.2309 -4.9082,-1.3288 0,-1.1149 -0.225,-1.1847 -3.6936,-1.1847 -3.4842,0 -3.6857,0.066 -3.6857,1.1994 0,1.4985 -1.4723,3.6694 -2.287,3.3723 -0.3347,-0.1213 -1.047,0.1612 -1.5826,0.6279 -0.9074,0.7922 -1.0503,0.7559 -2.1059,-0.5383 -0.7701,-0.9443 -1.3852,-1.2577 -1.9224,-0.9797 -3.1556,1.6331 -3.6457,1.7457 -4.5013,1.0356 -0.8668,-0.7194 -0.8963,-4.4714 -0.05,-6.3277 0.3045,-0.6675 -0.3712,-0.9969 -3.6127,-1.7611 -2.9174,-0.6876 -4.1974,-1.2603 -4.7701,-2.1349 -0.7608,-1.161 -1.1024,-1.2048 -11.9579,-1.5361 -6.146,-0.187 -14.8106,-0.4894 -19.2543,-0.6707 -7.9363,-0.3243 -8.053,-0.3462 -6.5815,-1.2365 1.2067,-0.73 4.3142,-1.0769 15.9773,-1.7826 7.9638,-0.4821 16.3155,-0.8707 18.5597,-0.8635 2.2444,0 4.0805,-0.2075 4.0805,-0.4767 0,-0.2689 -1.3622,-0.7633 -3.0274,-1.0985 -1.6652,-0.3348 -5.0363,-1.0361 -7.4917,-1.5579 -4.6431,-0.9866 -4.7093,-0.9782 -8.4355,1.0755 -1.8402,1.014 -4.9475,1.2993 -7.2993,0.6698 -1.1197,-0.2997 -1.2189,-0.5604 -0.9892,-2.5985 0.2879,-2.5544 0.4406,-2.4674 -5.5266,-3.1476 -2.0266,-0.231 -2.9113,-0.5415 -2.6869,-0.9427 0.2283,-0.4085 0.1512,-0.4306 -0.2446,-0.069 -0.389,0.3551 -4.9128,0.099 -13.7942,-0.7762 -9.64,-0.9514 -13.3145,-1.1441 -13.5825,-0.7118 -0.8687,1.401 -6.7231,5.4404 -7.9623,5.4937 -2.4708,0.1055 -3.9835,-0.1592 -4.3997,-0.7703 -0.3953,-0.5805 -0.2819,-3.9836 0.187,-5.5877 0.1889,-0.6487 -3.117,-1.0453 -20.7839,-2.4929 -11.5548,-0.9471 -21.1422,-1.8552 -21.3053,-2.0183 -0.5099,-0.5098 0.7496,-2.0542 2.3477,-2.8786 1.2959,-0.6687 3.953,-0.7495 17.3263,-0.5273 25.6169,0.4256 27.2822,0.3402 29.4008,-1.5089 0.8959,-0.7819 1.0236,-0.7668 1.6934,0.2005 0.3984,0.5752 0.9384,1.2993 1.2004,1.6088 0.5416,0.6403 29.8536,2.1126 39.7514,1.997 4.9455,-0.058 6.6022,-0.2725 8.0281,-1.0404 l 1.7963,-0.9674 1.4722,1.6118 c 1.4314,1.567 1.6388,1.6211 7.4674,1.9548 3.2974,0.1891 6.1009,0.2374 6.2301,0.1074 0.1293,-0.1293 0.02,-5.2793 -0.2489,-11.4448 -0.554,-12.8329 -0.8217,-11.8815 4.3001,-15.2718 3.0975,-2.0502 3.119,-2.0558 1.0967,-0.2892 l -2.0625,1.8015 2.2169,8.9093 c 1.2191,4.9001 2.6974,10.7129 3.285,12.9173 l 1.0684,4.008 5.7602,0.3644 5.76,0.3644 8.4758,-4.551 c 4.6616,-2.5032 11.1865,-5.825 14.4994,-7.3817 3.3133,-1.5568 9.0784,-4.5134 12.8118,-6.5708 3.7333,-2.0571 9.7035,-5.0013 13.2675,-6.5427 3.9637,-1.7143 6.5462,-3.1314 6.6505,-3.6493 0.197,-0.9785 0.9646,-1.1278 1.2588,-0.2449 0.1453,0.4341 0.4906,0.447 1.239,0.046 4.0335,-2.1584 16.7935,-2.8898 20.4986,-1.1748 l 2.1061,0.9751 -4.2121,0.069 c -5.9164,0.097 -8.1543,0.5844 -9.0768,1.9742 -0.7345,1.1063 -0.6925,1.209 0.7149,1.744 1.0587,0.4026 1.5499,0.4042 1.6826,0 0.1036,-0.3094 0.4091,-0.4259 0.6796,-0.2587 0.2704,0.1672 1.3502,0.02 2.3996,-0.3255 2.3768,-0.7846 7.6657,-0.7912 10.5547,-0.021 2.4022,0.6467 4.8575,3.1044 4.9477,4.952 0.2296,4.7035 -0.951,7.3519 -5.7622,12.9287 -3.2275,3.741 -3.7905,4.6957 -4.087,6.9303 -0.2954,2.2271 -0.6613,2.8519 -2.6033,4.4432 -1.2429,1.0183 -2.3929,1.8514 -2.556,1.8514 -0.1632,0 -0.187,-1.1253 -0.051,-2.501 l 0.244,-2.5007 -0.5996,2.1059 c -0.3296,1.1584 -0.9622,2.3724 -1.4053,2.6975 -0.6917,0.5076 -0.6274,0.6481 0.4519,0.9908 1.9815,0.6287 13.6708,0.2869 17.8942,-0.5233 1.6027,-0.3076 2.1869,-0.092 4.4754,1.6599 l 2.6321,2.0137 6.0549,0.027 c 3.6384,0.021 6.9468,-0.2543 8.2898,-0.6751 2.5594,-0.8019 3.2527,-0.5648 6.8475,2.3403 2.4377,1.9703 2.8871,3.7361 1.4661,5.7645 -1.437,2.0516 -12.1676,5.4542 -17.1672,5.4438 -4.6404,0 -5.7544,-0.3714 -5.7544,-1.8673 0,-0.6738 0.5331,-1.6056 1.1845,-2.0707 1.1773,-0.8404 1.1782,-0.8506 0.1313,-1.6401 -1.207,-0.9107 -1.2778,-0.897 -8.6875,1.6715 -4.6473,1.611 -6.2241,1.9149 -9.8937,1.9087 -5.6276,-0.02 -7.3491,-1.2608 -4.8489,-3.5233 1.8688,-1.6912 1.3365,-2.3696 -1.8591,-2.3696 -2.1032,0 -2.9968,0.2195 -3.2156,0.7899 -0.3504,0.9134 -2.8678,1.0609 -3.7111,0.2173 -0.4125,-0.4121 -0.6715,-0.4121 -0.9261,0 -0.4656,0.7529 -2.5522,0.734 -3.3165,-0.03 -0.5673,-0.5671 -8.6689,-0.1691 -19.7472,0.9683 -3.0588,0.3144 -4.0231,0.9994 -1.8428,1.3091 1.1153,0.1593 1.1773,0.3863 1.0574,3.8936 l -0.1274,3.7256 1.5509,-0.2277 c 1.3249,-0.1951 1.6026,-0.025 1.9028,1.1733 0.4597,1.8314 -0.083,5.088 -0.9429,5.6521 -0.3722,0.2444 -1.0911,0.3449 -1.5975,0.2236 -0.5067,-0.1212 -1.0537,0 -1.216,0.2564 -0.3802,0.6154 -2.8651,0.6245 -2.8651,0.021 0,-0.7758 -2.9276,-0.9527 -3.6138,-0.2183 -0.8363,0.8951 -1.3735,0.8645 -2.1945,-0.1253 z"
         style="opacity:0.997;fill:#f8f8ff;fill-opacity:1;stroke:none;stroke-width:0.526517" />
      <path
         inkscape:export-ydpi="15.798033"
         inkscape:export-xdpi="15.798033"
         inkscape:export-filename="/home/reglnx/Pictures/emojis/fgr.png"
         id="path8598"
         d="m -5752.2227,-3837.4163 c -3.4784,5.9746 -6.6601,12.1297 -9.5163,18.4094 -2.8615,6.2906 -5.406,12.7194 -7.6226,19.2628 -2.2168,6.5434 -4.1033,13.1931 -5.6527,19.9239 -1.5331,6.6493 -2.7103,13.3178 -3.5687,20.058 h 76.3115 v -77.6541 z m 49.9512,77.6541 v 77.6537 h 78.0009 v -77.6537 z m 0,77.6537 h -71.1171 c 0.7292,3.1493 1.5324,6.2812 2.4089,9.3932 2.0499,6.5971 4.4299,13.0879 7.1311,19.4484 2.7011,6.3606 5.7201,12.5827 9.0456,18.643 3.3255,6.0602 6.9534,11.9511 10.87,17.6506 3.0263,4.292 6.2151,8.4681 9.5598,12.5193 h 32.1017 z m 0,77.6545 v 32.1431 c 0.2407,0.2116 0.4818,0.4225 0.7234,0.6329 5.4337,4.2926 11.0797,8.3117 16.9165,12.0428 5.8369,3.7311 11.8577,7.1693 18.0395,10.3017 6.1817,3.1324 12.5168,5.9549 18.9818,8.4573 6.4651,2.5022 13.052,4.681 19.7357,6.5281 1.1989,0.2792 2.4003,0.5479 3.604,0.8058 v -70.9117 z"
         style="opacity:0.997;fill:#000000;fill-opacity:1;stroke:none;stroke-width:5.73039;stroke-linecap:round;stroke-linejoin:round;stroke-miterlimit:4;stroke-dasharray:none"
         inkscape:connector-curvature="0"
         sodipodi:nodetypes="csscccccccccccccsscccccccssscccc" />
      <path
         inkscape:export-ydpi="15.798033"
         inkscape:export-xdpi="15.798033"
         inkscape:export-filename="/home/reglnx/Pictures/emojis/fgr.png"
         id="path8585"
         d="m -5568.0744,-3822.4494 -7.6462,278.6917 h 47.022 l -3.4406,-125.7744 h 106.6596 v -38.9941 h -108.5712 l 3.4406,-80.2812 h 115.07 v -33.642 z"
         style="opacity:0.997;fill:#4169e1;fill-opacity:1;stroke:none;stroke-width:0.175147;stroke-opacity:1"
         inkscape:connector-curvature="0" />
    </g>
    <text
       xml:space="preserve"
       style="font-weight:bold;font-size:105.628px;line-height:1.25;font-family:OpenDyslexicMono;-inkscape-font-specification:'OpenDyslexicMono Bold';letter-spacing:0px;word-spacing:0px;stroke-width:1.41465"
       x="663.84705"
       y="131.81403"
       id="text6890"
       transform="matrix(1.0372121,0,-0.83021506,0.96412296,0,0)"><tspan
         sodipodi:role="line"
         id="tspan6888"
         x="663.84705"
         y="131.81403"
         style="font-style:normal;font-variant:normal;font-weight:bold;font-stretch:normal;font-family:'Nimbus Sans';-inkscape-font-specification:'Nimbus Sans Bold';fill:#f5c211;stroke-width:1.41465">BOEING 707-300</tspan></text>
    <rect
       style="opacity:0.9965;fill:#241f31;stroke-width:9.6077;stroke-linecap:square"
       id="rect15334"
       width="547.11707"
       height="47.886841"
       x="32.818962"
       y="1974.193" />
    <text
       xml:space="preserve"
       style="font-weight:bold;font-size:33.7845px;line-height:1.25;font-family:OpenDyslexicMono;-inkscape-font-specification:'OpenDyslexicMono Bold';letter-spacing:0px;word-spacing:0px;fill:#f6f5f4;stroke-width:0.45247"
       x="35.122288"
       y="2006.667"
       id="text14222"><tspan
         sodipodi:role="line"
         id="tspan14220"
         x="35.122288"
         y="2006.667"
         style="stroke-width:0.45247">By FlightGear Republic</tspan></text>
  </g>
</svg>
